HIERARCHY
ROOT hip
{
  OFFSET 0 0 0
  CHANNELS 6 Xposition Yposition Zposition Zrotation Yrotation Xrotation
  JOINT abdomen
  {
    OFFSET 0 20.6881 -0.73152
    CHANNELS 3 Zrotation Xrotation Yrotation
    JOINT chest
    {
      OFFSET 0 11.7043 -0.48768
      CHANNELS 3 Zrotation Xrotation Yrotation
      JOINT neck
      {
        OFFSET 0 22.1894 -2.19456
        CHANNELS 3 Zrotation Xrotation Yrotation
        JOINT head
        {
          OFFSET -0.24384 7.07133 1.2192
          CHANNELS 3 Zrotation Xrotation Yrotation
          JOINT leftEye
          {
            OFFSET 4.14528 8.04674 8.04672
            CHANNELS 3 Zrotation Xrotation Yrotation
            End Site
            {
              OFFSET 1 0 0
            }
          }
          JOINT rightEye
          {
            OFFSET -3.6576 8.04674 8.04672
            CHANNELS 3 Zrotation Xrotation Yrotation
            End Site
            {
              OFFSET 1 0 0
            }
          }
        }
      }
      JOINT rCollar
      {
        OFFSET -2.68224 19.2634 -4.8768
        CHANNELS 3 Zrotation Xrotation Yrotation
        JOINT rShldr
        {
          OFFSET -8.77824 -1.95073 1.46304
          CHANNELS 3 Zrotation Xrotation Yrotation
          JOINT rForeArm
          {
            OFFSET -28.1742 -1.7115 0.48768
            CHANNELS 3 Zrotation Xrotation Yrotation
            JOINT rHand
            {
              OFFSET -22.5879 0.773209 7.07136
              CHANNELS 3 Zrotation Xrotation Yrotation
              JOINT rThumb1
              {
                OFFSET -1.2192 -0.487915 3.41376
                CHANNELS 3 Zrotation Xrotation Yrotation
                JOINT rThumb2
                {
                  OFFSET -3.37035 -0.52449 3.41376
                  CHANNELS 3 Zrotation Xrotation Yrotation
                  End Site
                  {
                    OFFSET -1.78271 -1.18214 1.43049
                  }
                }
              }
              JOINT rIndex1
              {
                OFFSET -7.75947 0.938293 5.60832
                CHANNELS 3 Zrotation Xrotation Yrotation
                JOINT rIndex2
                {
                  OFFSET -2.54057 -0.884171 1.56538
                  CHANNELS 3 Zrotation Xrotation Yrotation
                  End Site
                  {
                    OFFSET -1.62519 -0.234802 1.16502
                  }
                }
              }
              JOINT rMid1
              {
                OFFSET -8.24714 1.18213 3.41376
                CHANNELS 3 Zrotation Xrotation Yrotation
                JOINT rMid2
                {
                  OFFSET -3.10165 -0.590103 1.0647
                  CHANNELS 3 Zrotation Xrotation Yrotation
                  End Site
                  {
                    OFFSET -2.48547 -0.328903 0.83742
                  }
                }
              }
              JOINT rRing1
              {
                OFFSET -8.82822 0.546677 1.51678
                CHANNELS 3 Zrotation Xrotation Yrotation
                JOINT rRing2
                {
                  OFFSET -2.60934 -0.819778 -0.0198488
                  CHANNELS 3 Zrotation Xrotation Yrotation
                  End Site
                  {
                    OFFSET -2.33842 -0.294052 0.168128
                  }
                }
              }
              JOINT rPinky1
              {
                OFFSET -8.27202 -0.0477905 -0.4584
                CHANNELS 3 Zrotation Xrotation Yrotation
                JOINT rPinky2
                {
                  OFFSET -1.82734 -0.647385 -0.700984
                  CHANNELS 3 Zrotation Xrotation Yrotation
                  End Site
                  {
                    OFFSET -1.69225 -0.51767 -0.607171
                  }
                }
              }
            }
          }
        }
      }
      JOINT lCollar
      {
        OFFSET 2.68224 19.2634 -4.8768
        CHANNELS 3 Zrotation Xrotation Yrotation
        JOINT lShldr
        {
          OFFSET 8.77824 -1.95073 1.46304
          CHANNELS 3 Zrotation Xrotation Yrotation
          JOINT lForeArm
          {
            OFFSET 28.1742 -1.7115 0.48768
            CHANNELS 3 Zrotation Xrotation Yrotation
            JOINT lHand
            {
              OFFSET 22.5879 0.773209 7.07136
              CHANNELS 3 Zrotation Xrotation Yrotation
              JOINT lThumb1
              {
                OFFSET 1.2192 -0.487915 3.41376
                CHANNELS 3 Zrotation Xrotation Yrotation
                JOINT lThumb2
                {
                  OFFSET 3.37035 -0.52449 3.41376
                  CHANNELS 3 Zrotation Xrotation Yrotation
                  End Site
                  {
                    OFFSET 1.78271 -1.18214 1.43049
                  }
                }
              }
              JOINT lIndex1
              {
                OFFSET 7.75947 0.938293 5.60832
                CHANNELS 3 Zrotation Xrotation Yrotation
                JOINT lIndex2
                {
                  OFFSET 2.54057 -0.884171 1.56538
                  CHANNELS 3 Zrotation Xrotation Yrotation
                  End Site
                  {
                    OFFSET 1.62519 -0.234802 1.16502
                  }
                }
              }
              JOINT lMid1
              {
                OFFSET 8.24714 1.18213 3.41376
                CHANNELS 3 Zrotation Xrotation Yrotation
                JOINT lMid2
                {
                  OFFSET 3.10165 -0.590103 1.0647
                  CHANNELS 3 Zrotation Xrotation Yrotation
                  End Site
                  {
                    OFFSET 2.48547 -0.328903 0.83742
                  }
                }
              }
              JOINT lRing1
              {
                OFFSET 8.82822 0.546677 1.51678
                CHANNELS 3 Zrotation Xrotation Yrotation
                JOINT lRing2
                {
                  OFFSET 2.60934 -0.819778 -0.0198488
                  CHANNELS 3 Zrotation Xrotation Yrotation
                  End Site
                  {
                    OFFSET 2.33842 -0.294052 0.168128
                  }
                }
              }
              JOINT lPinky1
              {
                OFFSET 8.27202 -0.0477905 -0.4584
                CHANNELS 3 Zrotation Xrotation Yrotation
                JOINT lPinky2
                {
                  OFFSET 1.82734 -0.647385 -0.700984
                  CHANNELS 3 Zrotation Xrotation Yrotation
                  End Site
                  {
                    OFFSET 1.69225 -0.51767 -0.607171
                  }
                }
              }
            }
          }
        }
      }
    }
  }
  JOINT rButtock
  {
    OFFSET -8.77824 4.35084 1.2192
    CHANNELS 3 Zrotation Xrotation Yrotation
    JOINT rThigh
    {
      OFFSET 0 -1.70687 -2.19456
      CHANNELS 3 Zrotation Xrotation Yrotation
      JOINT rShin
      {
        OFFSET 0 -36.8199 0.73152
        CHANNELS 3 Zrotation Xrotation Yrotation
        JOINT rFoot
        {
          OFFSET 0.73152 -45.1104 -5.12064
          CHANNELS 3 Zrotation Xrotation Yrotation
          End Site
          {
            OFFSET -1.1221 -3.69964 12.103
          }
        }
      }
    }
  }
  JOINT lButtock
  {
    OFFSET 8.77824 4.35084 1.2192
    CHANNELS 3 Zrotation Xrotation Yrotation
    JOINT lThigh
    {
      OFFSET 0 -1.70687 -2.19456
      CHANNELS 3 Zrotation Xrotation Yrotation
      JOINT lShin
      {
        OFFSET 0 -36.8199 0.73152
        CHANNELS 3 Zrotation Xrotation Yrotation
        JOINT lFoot
        {
          OFFSET -0.73152 -45.1104 -5.12064
          CHANNELS 3 Zrotation Xrotation Yrotation
          End Site
          {
            OFFSET 1.1221 -3.69964 12.103
          }
        }
      }
    }
  }
}
MOTION
Frames:	4
Frame Time:	0.03333
0.653100008275942 66.58499836921692 21.781499811913818 -375.2349928484362 -15.270400776464662 -355.00700513084996 13.534399769652849 3.6280201828528225 8.376560219802917 0.6745199738788107 -6.351760031862745 2.3895999511803176 -2.476180069429634 10.424999692460503 -0.4256260128936949 5.1340401825738455 -15.41229966401897 0.0885014024380733 -0.0 0.0 0.0 -0.0 0.0 0.0 1.858410000281597e-13 8.189890086280829e-14 1.6628299832181385e-13 42.38029927155362 49.8463005061191 46.02939955261922 -19.037200584855213 -11.846999827653905 36.39070148269434 -5.1954700501952935 52.43390059770551 10.528199581951164 -7.430580192600434e-11 3.3619898208369384e-09 -1.4414500430913712e-09 -1.9090199826258904e-10 5.566429885143291e-09 -2.479969926084196e-09 -7.429860219382501e-11 3.3619898208369384e-09 -1.4414500430913712e-09 7.730910121524428 5.474879855648998 0.41731399283890674 -7.430500057531312e-11 3.362020036106412e-09 -1.4414500430913712e-09 2.90554006136521 0.9651829962377875 0.10290200252939893 -7.42989997631602e-11 3.3619898208369384e-09 -1.4414500430913712e-09 10.278599710243157 0.7318009818271524 0.025912300303053633 -7.430790158905578e-11 3.3619898208369384e-09 -1.4414299658399444e-09 2.221669932038622 -0.7334870246959406 -0.20891999872313852 1.8579899609022015e-13 8.189930124696543e-14 1.6603500280145438e-13 -80.74289685819815 22.167300404100928 -62.37459889687708 25.403399636623366 -21.99009968382141 -54.41799883460793 6.499560202859944 -56.229699681764636 12.132500027413146 -4.3132799105282787e-10 -1.9848199805659505e-09 -9.132929968352336e-10 -6.9928202006026e-10 -3.56757014107469e-09 -1.5915200430812065e-09 -4.313289849761658e-10 -1.9848100413325707e-09 -9.132839521328582e-10 -7.730910121524428 5.474879855648998 -0.41731399283890674 -4.31325009282814e-10 -1.9848100413325707e-09 -9.132900150652197e-10 -2.90554006136521 0.9651829962377875 -0.10290200252939893 -4.313320164423466e-10 -1.9848100413325707e-09 -9.132920029118957e-10 -10.278599710243157 0.7318009818271524 -0.025912300303053633 -4.313260032061519e-10 -1.9848100413325707e-09 -9.132959786052475e-10 -2.221669932038622 -0.7334870246959406 0.20891999872313852 -2.0321699793705798e-16 0.0 -3.882510030490358e-19 5.1053499729652065 0.36247499096225616 -18.78429917045715 -0.3539770083351438 49.83180001451117 2.155849960328148 -18.057000137066684 -16.302300633628313 -38.069401471237974 2.0321699793705798e-16 0.0 3.882510030490358e-19 60.859102863456314 -59.09929779361336 54.38120119045448 2.276020095141941 70.95550215494751 -2.5037900419323527 -0.42945700196613157 -0.6512919946154783 -4.314110123659664
0.6100000089645619 66.48659706115723 21.888999815564603 -375.2720124737377 -15.319100025246854 -355.03399803844985 13.607300086211687 3.667549902674271 8.470720353927065 0.6284100071222893 -6.3541501711854265 2.415339945954334 -2.498479996739491 10.431500325003062 -0.46858800949478085 5.232470038702899 -15.310000505725105 0.013990600310613098 -0.0 0.0 0.0 -0.0 0.0 0.0 -3.9501199664133833e-13 -5.0467200622045744e-14 4.319839792911258e-13 42.254999451229736 49.88560141460336 46.15859941095918 -18.990799694728732 -11.792899606785527 36.282900607024025 -5.2261597976834535 52.534400001153074 10.566900287562103 5.940429819251579e-10 -1.511820014203419e-09 1.4399399753640127e-09 1.0827600071193093e-09 -2.3200200299380636e-09 2.4509899045347063e-09 5.940480012380146e-10 -1.511820014203419e-09 1.4399399753640127e-09 7.730910121524428 5.474879855648998 0.41731399283890674 5.940439758484958e-10 -1.5118099755777058e-09 1.4399399753640127e-09 2.90554006136521 0.9651829962377875 0.10290200252939893 5.940499890846904e-10 -1.511820014203419e-09 1.4399399753640127e-09 10.278599710243157 0.7318009818271524 0.025912300303053633 5.94040994078482e-10 -1.511820014203419e-09 1.439950013989726e-09 2.221669932038622 -0.7334870246959406 -0.20891999872313852 -3.950929955696123e-13 -5.046639985373147e-14 4.317350131425066e-13 -80.80710063639627 22.225099172404867 -62.364298971608704 25.404799825403217 -21.993400372737817 -54.423401514241405 6.570539955601539 -56.41240041187331 12.217799698636496 7.669209880166025e-10 7.209379994385431e-09 2.7010399451900105e-09 1.1971799648232904e-09 1.2783100108427971e-08 4.679319910192201e-09 7.669150244765747e-10 7.209390331188146e-09 2.7010500832080577e-09 -7.730910121524428 5.474879855648998 -0.41731399283890674 7.669209880166025e-10 7.209379994385431e-09 2.7010500832080577e-09 -2.90554006136521 0.9651829962377875 -0.10290200252939893 7.669100051637181e-10 7.209390331188146e-09 2.7010500832080577e-09 -10.278599710243157 0.7318009818271524 -0.025912300303053633 7.669250134061212e-10 7.209390331188146e-09 2.7010399451900105e-09 -2.221669932038622 -0.7334870246959406 0.20891999872313852 -2.0321699793705798e-16 0.0 -3.882510030490358e-19 5.116659912457101 0.44735700679003093 -18.796800124185566 -0.3550900090047385 49.94910168331696 2.1703600568896055 -18.192900410982425 -16.485499967546392 -38.09500102024718 2.0321699793705798e-16 0.0 3.882510030490358e-19 61.17419998043651 -59.10720032248307 54.589299978991846 2.329189916179317 71.26740274339613 -2.5583101059912754 -0.4434330097510057 -0.8421240115701967 -4.287279859939385
0.5656000084854895 66.38799905776978 21.99609981616959 -375.3679902919547 -15.356000122237848 -355.0389977369223 13.70219958831349 3.6983199048851785 8.581720319449882 0.5887459780341145 -6.362660160004439 2.4465799505575028 -2.5238699443185437 10.446099854353964 -0.509749023949952 5.309909869738857 -15.219099225608696 -0.058317602546703526 -0.0 0.0 0.0 -0.0 0.0 0.0 -7.627730225139703e-13 -1.0575400126991128e-13 6.640900238504417e-13 42.18929986160338 49.92620005902991 46.21299845260374 -18.953600776961547 -11.749900150865711 36.19620160079447 -5.263909826339291 52.656899443917254 10.614399984371309 1.434930005386705e-09 -3.0781400255817213e-09 3.206440023307943e-09 2.606900098666045e-09 -4.649349940998106e-09 5.45616999357033e-09 1.434930005386705e-09 -3.0781400255817213e-09 3.206430084074563e-09 7.730910121524428 5.474879855648998 0.41731399283890674 1.434930005386705e-09 -3.0781400255817213e-09 3.206440023307943e-09 2.90554006136521 0.9651829962377875 0.10290200252939893 1.434930005386705e-09 -3.0781400255817213e-09 3.206440023307943e-09 10.278599710243157 0.7318009818271524 0.025912300303053633 1.434930005386705e-09 -3.0781400255817213e-09 3.2064499625413222e-09 2.221669932038622 -0.7334870246959406 -0.20891999872313852 -7.628990100620825e-13 -1.0575299424309181e-13 6.638410091704095e-13 -80.87799799998099 22.308099631198864 -62.33520236574445 25.409000391742776 -22.002899458326013 -54.439001666305714 6.643640055193601 -56.597799066704134 12.305500181353107 1.4033100240592663e-09 1.6091300786061333e-08 5.812060147499366e-09 2.149339936220011e-09 2.8480798506132822e-08 1.0059599881216136e-08 1.403299985433553e-09 1.6091300786061333e-08 5.812060147499366e-09 -7.730910121524428 5.474879855648998 -0.41731399283890674 1.403299985433553e-09 1.6091300786061333e-08 5.812060147499366e-09 -2.90554006136521 0.9651829962377875 -0.10290200252939893 1.4032900462001734e-09 1.6091300786061333e-08 5.812060147499366e-09 -10.278599710243157 0.7318009818271524 -0.025912300303053633 1.4033100240592663e-09 1.6091300786061333e-08 5.812049810696652e-09 -2.221669932038622 -0.7334870246959406 0.20891999872313852 -2.0321699793705798e-16 0.0 -3.882510030490358e-19 5.159209856552165 0.5470119747406028 -18.784200132714187 -0.3553570000321773 50.03750140664985 2.183919903382785 -18.329700562321317 -16.650599300163943 -38.146101080522634 2.0321699793705798e-16 0.0 3.882510030490358e-19 61.5166998163668 -59.09119718925773 54.80360057929558 2.383749894156202 71.57819684119923 -2.61501006761249 -0.4580910225966762 -1.0267999470094709 -4.272170200834847
0.5222000098001445 66.29589796066284 22.091499814996496 -375.4680115821604 -15.351000423765399 -355.0100104140848 13.82120026667533 3.64349995283301 8.64253973891426 0.5868869926411076 -6.356860048738629 2.463939943550148 -2.5429500777649747 10.493100093580114 -0.5286469834446137 5.2867499789238135 -15.182999968297887 -0.09982360158591981 -0.0 0.0 0.0 -0.0 0.0 0.0 4.5071399262694075e-14 1.6300399766910782e-13 3.554579972264462e-13 42.053799153754085 49.97239945857588 46.3381001974417 -18.893500234907314 -11.680700089289727 36.05669840209154 -5.265979800544628 52.66359985949303 10.616999725124145 1.3045200078063336e-09 7.494060311981845e-09 -1.338080028097131e-09 2.1890799730415594e-09 1.2880200057437042e-08 -2.3601900379956124e-09 1.3045200078063336e-09 7.494039638376416e-09 -1.338080028097131e-09 7.730910121524428 5.474879855648998 0.41731399283890674 1.3045200078063336e-09 7.494060311981845e-09 -1.3380699894714176e-09 2.90554006136521 0.9651829962377875 0.10290200252939893 1.3045300464320469e-09 7.494060311981845e-09 -1.3380699894714176e-09 10.278599710243157 0.7318009818271524 0.025912300303053633 1.3045200078063336e-09 7.494060311981845e-09 -1.3380599508457043e-09 2.221669932038622 -0.7334870246959406 -0.20891999872313852 4.4965500686344877e-14 1.630030027751416e-13 3.552340004898084e-13 -80.86999984846291 22.40249967571761 -62.31519674166548 25.41880000565445 -22.025399808999328 -54.475700272716196 6.597730084913714 -56.48160047344929 12.250400191544967 -4.944629954032166e-10 8.301910069132194e-09 2.0967900166342003e-09 -9.479350020717315e-10 1.4469900127494115e-08 3.5848699731258406e-09 -4.944670207927354e-10 8.301929947598953e-09 2.0967900166342003e-09 -7.730910121524428 5.474879855648998 -0.41731399283890674 -4.944620014798786e-10 8.301929947598953e-09 2.0967999558675796e-09 -2.90554006136521 0.9651829962377875 -0.10290200252939893 -4.944789975689578e-10 8.301919610796239e-09 2.0967999558675796e-09 -10.278599710243157 0.7318009818271524 -0.025912300303053633 -4.944600136332028e-10 8.301919610796239e-09 2.0967900166342003e-09 -2.221669932038622 -0.7334870246959406 0.20891999872313852 -2.0321699793705798e-16 0.0 -3.882510030490358e-19 5.256429915424481 0.6298670252104706 -18.77440051880251 -0.35379299343395015 50.077601447267 2.1980300069909733 -18.50669979202032 -16.882800118734988 -38.19529893311424 2.0321699793705798e-16 0.0 3.882510030490358e-19 61.90929908985913 -59.12099730460649 55.067799126580844 2.436669986402049 71.87300146615532 -2.671269908919062 -0.4677560070765087 -1.178790012175649 -4.241660172699223
